<?xml version="1.0" encoding="UTF-8"?>
<svg version="1.1" xmlns="http://www.w3.org/2000/svg" width="1989" height="1476">
<path d="M0 0 C1.21565643 0.0021048 2.43131287 0.00420959 3.68380737 0.00637817 C23.59342497 0.04678204 43.32371854 0.43017408 63.0625 3.25 C63.0625 145.15 63.0625 287.05 63.0625 433.25 C112.2325 433.25 161.4025 433.25 212.0625 433.25 C223.2825 433.58 234.5025 433.91 246.0625 434.25 C246.7225 432.6 247.3825 430.95 248.0625 429.25 C249.50490676 426.93352514 250.97292716 424.67487635 252.5078125 422.421875 C252.94963867 421.76469986 253.39146484 421.10752472 253.84667969 420.43043518 C254.79565406 419.01937574 255.74658401 417.60962988 256.69927979 416.20108032 C259.2268397 412.46281475 261.73872017 408.71405817 264.25 404.96484375 C264.75258331 404.21490646 265.25516663 403.46496918 265.77297974 402.69230652 C270.00053676 396.37111003 274.11692908 389.9860969 278.1875 383.5625 C283.80523039 374.71534287 289.5459051 365.95859322 295.375 357.25 C303.34244024 345.34561733 311.25191313 333.40451306 319.125 321.4375 C319.68497681 320.58645691 320.24495361 319.73541382 320.82189941 318.85858154 C323.70338148 314.47912961 326.58426043 310.0992814 329.46484375 305.71923828 C335.07788087 297.18511903 340.69645001 288.65464173 346.31466675 280.12393188 C348.09608478 277.41890681 349.87729303 274.71374371 351.65844727 272.00854492 C352.74234707 270.36246535 353.8262499 268.71638777 354.91015625 267.0703125 C355.65193115 265.94362404 355.65193115 265.94362404 356.40869141 264.79417419 C356.86300537 264.10428909 357.31731934 263.41440399 357.78540039 262.70361328 C358.17917374 262.10557892 358.57294708 261.50754456 358.97865295 260.89138794 C360.00218897 259.34133558 361.03214707 257.7955294 362.0625 256.25 C364.74464417 255.88250732 364.74464417 255.88250732 368.21313477 255.89355469 C369.517948 255.89059387 370.82276123 255.88763306 372.16711426 255.88458252 C373.61271475 255.89664047 375.05831207 255.90908297 376.50390625 255.921875 C378.0057356 255.92460388 379.50756762 255.92610526 381.00939941 255.92645264 C385.04614982 255.93147148 389.0825753 255.95572318 393.11922073 255.98410034 C396.44780506 256.00522086 399.77638455 256.01530117 403.10501766 256.02539062 C430.09672307 256.10973272 457.08057616 256.50833735 484.0625 257.25 C484.13488892 256.29879272 484.13488892 256.29879272 484.20874023 255.32836914 C486.64675687 227.07543587 503.10158674 202.43074832 524.0625 184.25 C545.46350877 167.246924 571.21779629 161.63631357 598.0625 163.25 C626.0659422 166.57166036 652.05674893 182.18600634 669.54150391 204.10400391 C686.08111422 226.24432883 693.97357186 253.30062129 690.7578125 280.86132812 C687.36075849 303.86077035 677.64896649 323.19007139 662.0625 340.25 C661.40636719 340.98863281 660.75023437 341.72726562 660.07421875 342.48828125 C642.33374428 361.44437709 615.15140693 373.42227901 589.4140625 374.46484375 C558.22801674 375.28759879 530.61921369 364.03643242 508.03686523 342.6237793 C500.01153472 334.78236997 492.1001252 325.83769994 488.0625 315.25 C487.42642319 315.25229111 486.79034637 315.25458221 486.13499451 315.25694275 C469.67512562 315.30758343 453.22451041 315.1774337 436.76733398 314.87768555 C433.04743263 314.8111118 429.32745297 314.75218462 425.60742188 314.69335938 C423.22915854 314.65150095 420.85090292 314.60920102 418.47265625 314.56640625 C417.36664566 314.54969376 416.26063507 314.53298126 415.12110901 314.51576233 C414.10411423 314.49581711 413.08711945 314.47587189 412.03930664 314.45532227 C410.70132774 314.43200584 410.70132774 314.43200584 409.33631897 314.40821838 C407.0625 314.25 407.0625 314.25 404.0625 313.25 C403.80380127 313.96212646 403.54510254 314.67425293 403.27856445 315.40795898 C401.98312171 318.43551349 400.42177333 320.97680466 398.60546875 323.72265625 C397.91163086 324.77694824 397.21779297 325.83124023 396.50292969 326.91748047 C395.75198234 328.04917303 395.00100508 329.18084575 394.25 330.3125 C393.47639173 331.48551269 392.70328492 332.65885624 391.93066406 333.83251953 C390.37452051 336.19590875 388.81657062 338.55809048 387.25732422 340.91943359 C384.25535708 345.47481021 381.28100078 350.04777225 378.3125 354.625 C377.26828416 356.23310863 376.22401365 357.84118176 375.1796875 359.44921875 C374.66889648 360.23603027 374.15810547 361.0228418 373.63183594 361.83349609 C372.00816722 364.33366301 370.38318033 366.83296864 368.7578125 369.33203125 C363.68446791 377.13270817 358.61496995 384.935783 353.5625 392.75 C347.9630475 401.41018747 342.34231278 410.05647988 336.71972656 418.70166016 C333.99991031 422.88395863 331.28124278 427.06700366 328.5625 431.25 C325.28964758 436.28553696 322.01653102 441.32090121 318.7421875 446.35546875 C313.67432091 454.14850889 308.61013527 461.94383757 303.5625 469.75 C302.21724841 471.82918314 300.87184965 473.90827094 299.52636719 475.98730469 C298.48492685 477.59705604 297.44396144 479.20711469 296.40332031 480.81738281 C294.66632995 483.50430502 292.92709282 486.18976215 291.1875 488.875 C290.65189453 489.70451172 290.11628906 490.53402344 289.56445312 491.38867188 C288.79391602 492.57686523 288.79391602 492.57686523 288.0078125 493.7890625 C287.55937988 494.48209473 287.11094727 495.17512695 286.64892578 495.88916016 C286.12540527 496.6682373 285.60188477 497.44731445 285.0625 498.25 C284.79591583 498.84742004 284.52933167 499.44484009 284.25466919 500.06036377 C283.06777475 502.32616491 282.08765865 503.66797483 280.0625 505.25 C275.45661175 506.2876878 270.85655188 506.08404806 266.1640625 505.96875 C264.67939526 505.9584564 263.19470342 505.95131961 261.71000671 505.94702148 C257.57728338 505.92617335 253.44618435 505.86153049 249.31406021 505.79055786 C244.87519583 505.72201542 240.43607823 505.6940653 235.99682617 505.66210938 C227.83824545 505.59835521 219.68019275 505.50934238 211.52197266 505.41015625 C195.6276054 505.22035715 179.73281325 505.11778416 163.83769798 505.01507759 C156.8760049 504.96995012 149.91432093 504.92342516 142.95263672 504.87695312 C142.18595625 504.87185195 141.41927579 504.86675077 140.62936258 504.86149502 C114.4401771 504.68682136 88.25138213 504.46526162 62.0625 504.25 C62.0625 543.52 62.0625 582.79 62.0625 623.25 C71.6325 622.92 81.2025 622.59 91.0625 622.25 C105.66226211 622.02162406 105.66226211 622.02162406 110.67452431 621.98744583 C111.80545863 621.97934466 112.93639296 621.97124349 114.10159802 621.96289682 C115.28115906 621.954677 116.46072009 621.94645719 117.67602539 621.93798828 C120.2732574 621.91742914 122.87048827 621.89672616 125.46771812 621.87589645 C133.40745961 621.81372927 141.34725585 621.76136976 149.28707537 621.71031636 C151.61717777 621.69518574 153.94727687 621.67961891 156.27737546 621.6639123 C255.85885423 620.99366412 355.4433983 621.09821168 455.02659495 621.12053815 C474.6840864 621.12489944 494.34157253 621.12449326 513.99906392 621.12008338 C723.9878643 621.07305955 723.9878643 621.07305955 866.65528613 622.15924144 C879.09099984 622.2691364 891.52681114 622.36548565 903.96264648 622.46044922 C906.8168179 622.48229232 909.67098919 622.50415108 912.52515996 622.52607828 C914.28578481 622.53956319 916.04641055 622.55293257 917.80703723 622.56617588 C921.98230855 622.59786612 926.15752781 622.63221326 930.33273029 622.67200947 C931.13609965 622.67944821 931.939469 622.68688695 932.76718289 622.69455111 C934.25635437 622.70849836 935.74551961 622.72314035 937.23467535 622.73867834 C950.21888836 622.8588561 961.96533639 622.31840612 974.0625 617.25 C974.91569824 616.90936523 975.76889648 616.56873047 976.64794922 616.21777344 C978.61680637 615.37199992 980.48898508 614.45237456 982.375 613.4375 C983.02831299 613.0976709 983.68162598 612.7578418 984.35473633 612.40771484 C1004.40729745 601.76237673 1021.81560309 586.1795325 1038.36352539 570.80541992 C1039.6577864 569.62051736 1040.96385447 568.44849767 1042.27514648 567.2824707 C1048.64410431 561.61748658 1054.73655176 555.72718875 1060.75 549.6875 C1061.64783203 548.79353516 1062.54566406 547.89957031 1063.47070312 546.97851562 C1067.99764842 542.44493744 1072.39016581 537.85705262 1076.56274414 532.99487305 C1078.63043692 530.58924057 1080.78516836 528.26738088 1082.9375 525.9375 C1086.98696364 521.49831355 1090.81532648 516.93102436 1094.58984375 512.2578125 C1097.47931089 508.74297885 1100.44952991 505.30608461 1103.4375 501.875 C1119.55893974 483.69740004 1119.55893974 483.69740004 1134.0625 464.25 C1133.58941406 464.72832275 1133.11632813 465.20664551 1132.62890625 465.69946289 C1130.44285594 467.9065534 1128.25270871 470.10953633 1126.0625 472.3125 C1125.31871094 473.06466797 1124.57492187 473.81683594 1123.80859375 474.59179688 C1119.05978405 479.36125358 1114.17011459 483.86988143 1109.0625 488.25 C1107.90584793 489.27151114 1106.75085222 490.29490133 1105.59765625 491.3203125 C1097.12185901 498.80031273 1088.37235902 505.80756697 1079.31445312 512.56884766 C1077.78456555 513.71095583 1076.25730799 514.85659373 1074.73242188 516.00537109 C1063.80021863 524.24051432 1052.70180319 532.04606235 1041.0625 539.25 C1040.29357422 539.72646973 1039.52464844 540.20293945 1038.73242188 540.69384766 C1021.2966335 551.44072372 1003.43128712 561.253624 985 570.1875 C983.90679443 570.71915771 982.81358887 571.25081543 981.68725586 571.79858398 C974.28085718 575.34101863 966.76486269 578.41071311 959.0625 581.25 C952.90649472 575.09399472 955.77163326 554.00166796 955.75 545.5625 C955.79994864 485.31215445 980.16636251 434.48554796 1022.0625 392.0625 C1027.42215695 386.71823944 1033.08404092 381.89654921 1039.0625 377.25 C1039.6719043 376.76950195 1040.28130859 376.28900391 1040.90917969 375.79394531 C1102.32005176 327.40688116 1174.87456924 296.50953233 1253.0625 290.25 C1254.29484375 290.13914062 1255.5271875 290.02828125 1256.796875 289.9140625 C1266.89478986 289.15156689 1277.00360074 289.14609966 1287.125 289.125 C1287.84148712 289.12232117 1288.55797424 289.11964233 1289.2961731 289.11688232 C1317.63575784 289.03662892 1317.63575784 289.03662892 1322.0625 291.25 C1322.54907227 293.25268555 1322.54907227 293.25268555 1322.87890625 295.88671875 C1323.00330078 296.85802734 1323.12769531 297.82933594 1323.25585938 298.83007812 C1323.43858398 300.36825195 1323.43858398 300.36825195 1323.625 301.9375 C1323.75068359 302.91267578 1323.87636719 303.88785156 1324.00585938 304.89257812 C1325.80310756 319.31761197 1326.3028328 333.66868148 1326.3125 348.1875 C1326.31351212 349.56569916 1326.31351212 349.56569916 1326.31454468 350.97174072 C1326.22324829 429.86376292 1301.05949454 508.79514476 1248.0625 568.25 C1247.61696777 568.75192871 1247.17143555 569.25385742 1246.71240234 569.77099609 C1236.5815945 581.13397848 1226.09650791 591.88513199 1214.0625 601.25 C1212.79553231 602.25776145 1211.5286081 603.26557757 1210.26171875 604.2734375 C1171.10531432 635.12899971 1126.58603121 651.79612387 1078.0625 661.25 C1048.50919727 667.0239202 1020.30011814 674.77803485 992.0625 685.25 C976.95519589 690.8449763 961.82692449 696.07520244 946.375 700.625 C945.68146423 700.8302832 944.98792847 701.03556641 944.27337646 701.24707031 C943.59647766 701.44655273 942.91957886 701.64603516 942.22216797 701.8515625 C941.63619843 702.02429688 941.05022888 702.19703125 940.44650269 702.375 C938.43772332 702.94863614 936.42227655 703.49881085 934.40597719 704.04542756 C931.82774138 704.74705706 929.30202698 705.49759694 926.75911003 706.32552695 C911.94594325 710.63018224 896.52957237 709.80316271 881.25070945 709.73906477 C876.8792268 709.72521478 872.50778214 709.7348325 868.13629109 709.74137473 C860.48732466 709.74963736 852.83848317 709.74315018 845.18953133 709.7268219 C833.815973 709.7026104 822.44249288 709.70148529 811.06891347 709.70498985 C791.93370471 709.71023712 772.79855134 709.69691154 753.66335869 709.67292023 C734.72313602 709.64923434 715.78293642 709.63385285 696.84269905 709.62950897 C695.66408652 709.62923401 694.48547398 709.62895906 693.27114591 709.62867576 C687.28532001 709.62732239 681.29949409 709.62611687 675.31366814 709.62496826 C632.94029758 709.61657152 590.56695712 709.58963579 548.19360352 709.55175781 C507.03409993 709.51500743 465.8746046 709.48667917 424.71508789 709.46972656 C422.81127944 709.46893741 422.81127944 709.46893741 420.86901021 709.46813231 C408.12287047 709.46285813 395.37673067 709.45775489 382.63059081 709.45277687 C356.66632951 709.44263261 330.70206875 709.43134761 304.73780823 709.41937256 C303.54407108 709.4188234 302.35033394 709.41827424 301.12042294 709.41770844 C221.43443611 709.38091942 141.74846597 709.31754022 62.0625 709.25 C62.08129211 710.92413719 62.08129211 710.92413719 62.10046387 712.63209534 C62.22046055 723.34799345 62.33810133 734.0639154 62.45365143 744.7798624 C62.51307247 750.28400007 62.57321786 755.78812747 62.63525391 761.29223633 C62.94632414 788.94600231 63.14144267 816.59440744 63.0625 844.25 C63.61401639 844.24918814 64.16553278 844.24837628 64.73376179 844.24753981 C67.26623403 844.24383223 69.79870635 844.24017805 72.33117867 844.23652458 C73.19859839 844.23524675 74.06601812 844.23396892 74.95972329 844.23265237 C109.07838221 844.18371708 143.19498048 844.40797945 177.3126272 844.63884032 C182.96044182 844.67685302 188.60826764 844.71261593 194.25610352 844.74731445 C195.04788738 844.75225839 195.83967124 844.75720233 196.65544856 844.76229608 C200.6517853 844.78723299 204.64812356 844.81123858 208.64447594 844.83353615 C216.59600435 844.87976791 224.54635277 844.94885229 232.4972229 845.06210327 C235.65844287 845.10459474 238.81968509 845.14468239 241.98095703 845.18310547 C242.76144511 845.19284858 243.5419332 845.20259168 244.34607244 845.21263003 C254.9393634 845.33339147 265.48652574 845.1501676 276.07131672 844.71759319 C281.79167608 844.48582687 287.51328115 844.34686551 293.23703879 844.2302025 C297.10411943 844.14456791 300.95384126 844.00812146 304.81305122 843.74242973 C323.92918497 842.45370532 323.92918497 842.45370532 332.0625 846.25 C339.37023767 853.06462023 343.57049709 861.97958069 347.58524323 870.99415207 C349.41591022 875.0289099 351.59489696 878.740841 353.94921875 882.484375 C355.21858784 884.65482366 356.48561174 886.82664601 357.75 889 C358.45195284 890.2027509 359.15410757 891.40538398 359.85644531 892.60791016 C361.25953603 895.01100099 362.66130653 897.41485394 364.06201172 899.81933594 C365.96503333 903.0828531 367.87393777 906.34284053 369.78515625 909.6015625 C377.11056608 922.10221735 384.31344619 934.66672446 391.40625 947.30078125 C393.1116829 950.33757805 394.821361 953.37196036 396.53125 956.40625 C403.43835983 968.68172865 410.2265902 981.01553367 416.91015625 993.4140625 C418.96696987 997.22888517 421.03642925 1001.03626312 423.12109375 1004.8359375 C428.89117249 1015.35312405 434.54883274 1025.91820102 440.05493164 1036.57641602 C442.09949846 1040.52750345 444.15162104 1044.4493204 446.40625 1048.28515625 C448.0625 1051.25 448.0625 1051.25 448.0625 1053.25 C477.7625 1053.25 507.4625 1053.25 538.0625 1053.25 C538.7225 1049.62 539.3825 1045.99 540.0625 1042.25 C545.31067056 1025.5418898 554.24059487 1011.04526558 566.0625 998.25 C567.04476563 997.14591797 567.04476563 997.14591797 568.046875 996.01953125 C585.18768268 977.67007687 611.9911501 965.87638591 636.97265625 964.9140625 C670.12636818 964.43090454 697.80971938 975.64637042 721.75 998.5 C744.98261302 1022.68644464 754.90060481 1052.5531864 754.37109375 1085.75 C753.51855484 1110.08804019 742.55230086 1132.41709307 725.0625 1149.25 C704.95993223 1166.59806573 679.78260616 1177.23851333 653.0625 1178.25 C651.46535156 1178.32734375 651.46535156 1178.32734375 649.8359375 1178.40625 C618.39045596 1179.21427094 589.26911601 1168.13331079 566.27734375 1146.7734375 C554.49997446 1135.53555722 544.92669448 1123.06938676 538.0625 1108.25 C538.0625 1107.59 538.0625 1106.93 538.0625 1106.25 C537.14865508 1106.27350572 537.14865508 1106.27350572 536.21634865 1106.29748631 C521.35942612 1106.67370738 506.50296552 1106.9546029 491.64245033 1107.13080692 C484.45536383 1107.21829972 477.27146491 1107.33744072 470.08642578 1107.5324707 C463.82004183 1107.702483 457.55596561 1107.81171175 451.28733957 1107.84950441 C447.96938127 1107.87159209 444.65952353 1107.93205504 441.34331131 1108.04741096 C421.1536348 1108.72161318 421.1536348 1108.72161318 415.99134636 1104.59394455 C412.61586195 1100.58915542 410.58675433 1096.18558994 408.82738113 1091.28653622 C407.77567773 1088.48632063 406.3093672 1085.99464103 404.76953125 1083.4375 C403.80419625 1081.70860753 402.83935458 1079.97943953 401.875 1078.25 C390.23262603 1057.53829695 377.75473284 1037.33112307 365.0625 1017.25 C364.43263184 1016.25033203 363.80276367 1015.25066406 363.15380859 1014.22070312 C344.06427941 983.96047967 324.0267434 953.97387072 302.56556857 925.34013367 C301.0625 923.25 301.0625 923.25 299.80767953 921.15330505 C297.15716467 916.94549166 297.15716467 916.94549166 292.97807431 914.5113678 C290.44067096 914.22406196 288.01064692 914.19449915 285.45742798 914.25 C284.01641128 914.23362157 284.01641128 914.23362157 282.54628313 914.21691227 C279.3301001 914.19004167 276.11699809 914.22013614 272.90087891 914.25 C270.59459065 914.24239363 268.28831169 914.23127454 265.98205566 914.21690369 C259.72193281 914.18786152 253.46281627 914.2080202 247.20272875 914.2369194 C240.66035174 914.25878591 234.11814013 914.23553492 227.57577515 914.21704102 C216.59517656 914.19076215 205.61487418 914.19498644 194.63427734 914.21923828 C183.32562628 914.24413832 172.01716831 914.25224211 160.70849609 914.23779297 C160.01111547 914.23690776 159.31373485 914.23602255 158.59522147 914.23511052 C155.0965722 914.23056607 151.59792347 914.22569179 148.09927487 914.22065353 C119.08694484 914.17930061 90.07480668 914.19633224 61.0625 914.25 C61.06765373 914.90632919 61.07280746 915.56265839 61.07811737 916.23887634 C61.25770165 939.24246405 61.4156829 962.2461813 61.5625 985.25 C61.57142281 986.6432185 61.57142281 986.6432185 61.58052588 988.06458282 C62.10578079 1070.34701949 62.14884559 1152.62834215 62.12565851 1234.91206074 C62.12499797 1237.25721804 62.12435524 1239.60237535 62.12371445 1241.94753265 C62.11263652 1282.04836115 62.09232031 1322.14918089 62.0625 1362.25 C57.50304884 1362.2688678 52.94362155 1362.28230282 48.38414001 1362.29119873 C46.84057722 1362.29491635 45.29701696 1362.29999193 43.75346375 1362.30657959 C-23.12618061 1362.58437666 -95.06929442 1351.43654117 -157.9375 1328.25 C-159.70673828 1327.5988623 -159.70673828 1327.5988623 -161.51171875 1326.93457031 C-201.19044042 1312.26490964 -240.23012259 1295.37948346 -276.9375 1274.25 C-277.88367188 1273.70617676 -278.82984375 1273.16235352 -279.8046875 1272.60205078 C-309.16139744 1255.60732811 -337.50345883 1236.51642961 -363.9375 1215.25 C-364.56865723 1214.74500977 -365.19981445 1214.24001953 -365.85009766 1213.71972656 C-379.73972967 1202.59843953 -393.19714439 1191.04284764 -406.18945312 1178.88476562 C-408.10720169 1177.09129574 -410.03013651 1175.3034747 -411.953125 1173.515625 C-430.45536602 1156.282295 -430.45536602 1156.282295 -437.25390625 1148.453125 C-440.82960406 1144.3386037 -444.55550086 1140.38585486 -448.3125 1136.4375 C-453.35517213 1131.09772776 -458.20012281 1125.68683173 -462.77734375 1119.9375 C-464.75803117 1117.4732813 -466.79673909 1115.06983577 -468.86157227 1112.67602539 C-475.0286338 1105.50913429 -480.72288437 1098.04391931 -486.32666016 1090.43164062 C-488.00356302 1088.16052757 -489.69406456 1085.9000182 -491.38671875 1083.640625 C-499.27548758 1073.07653456 -506.77542215 1062.31910158 -513.9375 1051.25 C-514.41896484 1050.5084668 -514.90042969 1049.76693359 -515.39648438 1049.00292969 C-562.08790741 976.84629129 -594.96713972 899.52550385 -614.79647827 751.2590332 C-614.93409549 749.29850156 -615.08178882 747.33868541 -615.22973633 745.37890625 C-616.21238117 731.28093036 -616.12482328 717.14914829 -616.12280273 703.02441406 C-616.1227222 700.11647219 -616.12956254 697.2086903 -616.14331055 694.30078125 C-616.26783354 667.49746216 -615.20258453 640.8408001 -612.1875 614.1875 C-612.10479858 613.44160614 -612.02209717 612.69571228 -611.93688965 611.92721558 C-602.52134864 527.59628885 -580.10250889 445.60222162 -526.36425781 334.75927734 C-524.90204957 332.18765238 -523.46159806 329.60467043 -522.0234375 327.01953125 C-501.67418194 290.65967949 -477.63111177 255.98790787 -450.5390625 224.3203125 C-448.19492299 221.57265955 -445.93866684 218.76199772 -443.6875 215.9375 C-438.17791131 209.16632392 -432.13215982 202.90406211 -426.12353516 196.57958984 C-424.05263689 194.37269781 -422.01128661 192.14072301 -419.97267151 189.90405273 C-412.65864296 181.90076986 -405.04932382 174.20900099 -397.37255859 166.5546875 C-395.17297928 164.36051498 -392.97885993 162.16098277 -390.78515625 159.9609375 C-389.3623 158.53874144 -387.93913391 157.11685529 -386.515625 155.6953125 C-385.87272522 155.05038849 -385.22982544 154.40546448 -384.56744385 153.74099731 C-380.72793763 149.92096929 -376.77534437 146.28450301 -372.67323303 142.74761963 C-370.45229808 140.83135963 -368.28991635 138.85413544 -366.125 136.875 C-360.87551145 132.14486725 -355.45381394 127.66451049 -349.9375 123.25 C-349.42767578 122.84056152 -348.91785156 122.43112305 -348.39257812 122.00927734 C-282.0548977 68.84575683 -205.12088241 31.3438836 -70.5625 4 C-68.80341309 3.77316528 -68.80341309 3.77316528 -67.00878906 3.54174805 C-44.7099726 0.85965052 -22.44673139 -0.09714535 0 0 Z M540.6484375 228.97265625 C528.76743679 244.05238792 524.41453222 259.38076894 526.0625 278.25 C528.5615682 292.39245413 535.03107082 303.18403922 545.0625 313.25 C545.67738281 313.88808594 546.29226563 314.52617187 546.92578125 315.18359375 C558.27934691 326.09954874 573.79730236 330.77320633 589.22192383 330.67211914 C606.014803 330.1360827 619.35194075 322.90019555 631.0625 311.25 C631.68898438 310.65832031 632.31546875 310.06664062 632.9609375 309.45703125 C637.07952308 305.23594693 639.72745028 300.46659581 642.375 295.25 C642.71289551 294.58540771 643.05079102 293.92081543 643.39892578 293.23608398 C649.47432035 280.72384733 650.29194004 265.46162581 646.375 252.125 C645.64930435 250.14949518 644.88112245 248.18884264 644.0625 246.25 C643.711875 245.38375 643.36125 244.5175 643 243.625 C635.5862699 227.15004421 621.82694158 216.94044777 605.55859375 210.21484375 C582.63227561 202.50098084 556.37118553 211.24004238 540.6484375 228.97265625 Z M596.74853516 1036.85644531 C586.18454694 1050.69891264 582.39148181 1066.01606609 584.0625 1083.25 C586.29652183 1099.10789265 595.23586853 1113.02236325 607.328125 1123.30078125 C620.06045625 1132.37711452 635.30551997 1137.92870974 651.0625 1136.25 C669.5663194 1133.09721941 684.70971721 1124.48000734 696 1109.3125 C705.66431546 1094.5095973 708.44051577 1077.65336161 705.375 1060.375 C704.46145245 1057.20803515 703.38636193 1054.2670772 702.0625 1051.25 C701.66160156 1050.32316406 701.26070312 1049.39632813 700.84765625 1048.44140625 C695.23648766 1036.97510521 685.93974836 1027.77267427 675.0625 1021.25 C674.44375 1020.86457031 673.825 1020.47914063 673.1875 1020.08203125 C647.22703445 1005.47926938 614.97275822 1014.57562261 596.74853516 1036.85644531 Z " fill="#0E3C2D" transform="translate(638.9375,63.75)"/>
<path d="M0 0 C0.79583496 0.35562012 1.59166992 0.71124023 2.41162109 1.07763672 C39.57272513 17.82160015 74.51545014 40.78905391 104.375 68.5859375 C106.46148656 70.50475996 108.57526009 72.36215403 110.72265625 74.2109375 C122.44541948 84.43846434 133.50098875 95.67791812 143 108 C143.9326554 109.13573086 144.86913285 110.26832958 145.80859375 111.3984375 C157.20673837 125.18740351 166.67763336 140.17709113 175 156 C175.36834961 156.69722168 175.73669922 157.39444336 176.11621094 158.11279297 C190.30829187 185.39531455 197.76945422 215.553242 201 246 C201.08118073 246.74853241 201.16236145 247.49706482 201.2460022 248.26828003 C202.75004343 262.38878793 203.36569077 276.3659434 203.3125 290.5625 C203.31100952 291.55725342 203.30951904 292.55200684 203.3079834 293.5769043 C203.26340054 310.22427734 202.47615731 326.51518755 200 343 C199.85546387 343.97678711 199.71092773 344.95357422 199.56201172 345.95996094 C191.89127701 395.99387839 170.91865639 443.21210429 137 481 C136.56123535 481.49371094 136.1224707 481.98742188 135.67041016 482.49609375 C125.23755129 494.21926242 114.37781585 505.31817417 102 515 C100.94400105 515.85645845 99.88936977 516.71460529 98.8359375 517.57421875 C85.11921177 528.68328565 70.31081785 538.19048452 54.96582031 546.88574219 C53.16657303 547.90558379 51.37579466 548.9403294 49.5859375 549.9765625 C17.74187588 567.76531416 -17.24151104 579.94222973 -53.87467766 580.21675205 C-54.9046503 580.22803614 -55.93462294 580.23932023 -56.99580687 580.25094625 C-60.42766708 580.28747772 -63.85955278 580.31775683 -67.29147339 580.34803772 C-69.78517823 580.37327504 -72.27887919 580.39889835 -74.77257645 580.42487329 C-80.18515806 580.48036427 -85.59775555 580.53312848 -91.01038742 580.58345795 C-99.06114236 580.65833017 -107.11184141 580.73827813 -115.1625373 580.81922253 C-128.71908134 580.95537248 -142.27566293 581.08736157 -155.83227158 581.21690559 C-169.2809925 581.34541948 -182.72969573 581.47557745 -196.17837906 581.60796928 C-197.01654998 581.61621863 -197.8547209 581.62446797 -198.71829094 581.63296729 C-202.12143616 581.66646557 -205.52458126 581.69997462 -208.92772623 581.73349839 C-240.86285102 582.04807381 -272.79802066 582.35785648 -304.73321543 582.66523774 C-333.01179131 582.93744571 -361.29033352 583.21290647 -389.56884766 583.49145508 C-391.37986389 583.50929273 -393.19088013 583.52713036 -395.00189637 583.54496796 C-395.89728286 583.55378724 -396.79266935 583.56260651 -397.71518876 583.57169304 C-402.22390283 583.61610163 -406.73261694 583.66050537 -411.2413311 583.7049036 C-412.13111322 583.71366596 -413.02089534 583.72242831 -413.93764055 583.73145619 C-437.6417004 583.9648521 -461.34578191 584.19602604 -485.04987061 584.4264726 C-485.89569135 584.43469572 -486.74151209 584.44291883 -487.61296376 584.45139113 C-494.43591778 584.51772222 -494.43591778 584.51772222 -497.81389198 584.55055073 C-509.55900143 584.6647044 -521.30410346 584.7795944 -533.04920083 584.89498299 C-548.22500509 585.0440648 -563.40082344 585.19157097 -578.57666765 585.33653194 C-585.87747181 585.40630557 -593.17826808 585.47672132 -600.47904587 585.54920578 C-633.3203041 585.87484014 -666.15699703 586.0856712 -699 586 C-699.00699535 585.44651707 -699.0139907 584.89303414 -699.02119803 584.322779 C-699.05332551 581.78861414 -699.08571226 579.25445265 -699.11810303 576.72029114 C-699.12910223 575.84965546 -699.14010143 574.97901978 -699.15143394 574.08200121 C-699.20879387 569.60864196 -699.27480677 565.13576994 -699.36035156 560.6628418 C-699.50880106 546.68780125 -697.62803778 536.1041713 -687.875 525.4375 C-678.77212331 516.66457833 -667.00602721 514.70774517 -654.80275536 514.69422817 C-653.49327496 514.68108579 -653.49327496 514.68108579 -652.15734041 514.66767791 C-649.24717238 514.64079892 -646.33710901 514.62759067 -643.42684937 514.61436462 C-641.31225545 514.59767444 -639.19766808 514.58013666 -637.08308756 514.56182677 C-631.28170129 514.51403156 -625.48029362 514.47821415 -619.67881155 514.44435585 C-613.4143773 514.40568445 -607.15003055 514.35586474 -600.88566589 514.30738831 C-590.01912387 514.22480316 -579.15255486 514.14916158 -568.28593063 514.07832146 C-556.8451213 514.0036935 -545.40435346 513.92481598 -533.9636116 513.84045601 C-533.24968861 513.83519323 -532.53576563 513.82993044 -531.80020861 513.82450818 C-528.17253038 513.79774122 -524.54485275 513.77089445 -520.91717537 513.74401373 C-495.19516018 513.55352754 -469.47309095 513.3716093 -443.75097656 513.19506836 C-418.944638 513.0247788 -394.13832029 512.85192734 -369.33203125 512.67456055 C-368.57233583 512.66913044 -367.81264041 512.66370033 -367.02992391 512.65810567 C-349.58820435 512.53342081 -332.14649112 512.40786686 -314.70478249 512.28166294 C-313.21199489 512.27086436 -311.71920729 512.2600661 -310.22641969 512.24926816 C-308.73854157 512.23850503 -307.25066344 512.22774181 -305.76278532 512.21697849 C-304.66086432 512.20900751 -304.66086432 512.20900751 -303.53668229 512.20087549 C-299.84728535 512.17418441 -296.15788855 512.14747575 -292.46849199 512.12073357 C-276.70047113 512.00646361 -260.93244271 511.89361068 -245.16437912 511.78538322 C-243.77405807 511.77583337 -242.38373703 511.76628312 -240.99341599 511.75673247 C-240.30840062 511.75202772 -239.62338525 511.74732298 -238.91761184 511.74247567 C-235.49189863 511.71894749 -232.06618544 511.69541472 -228.64047241 511.67185974 C-227.96941607 511.66724573 -227.29835973 511.66263172 -226.60696835 511.65787788 C-204.61063154 511.50648504 -182.61444236 511.34059825 -160.61834538 511.15756494 C-149.22571846 511.06314193 -137.8331583 510.9775433 -126.44032674 510.91205175 C-119.5842206 510.8718182 -112.72830491 510.81870736 -105.87238831 510.75373476 C-102.15168187 510.71882613 -98.43120079 510.68925791 -94.71034312 510.67744434 C-35.0339668 510.4724561 19.30999571 490.57944718 61.8046875 448.203125 C96.45908616 411.84111829 115.40159145 362.68564744 118 313 C118.06058594 311.85015625 118.12117188 310.7003125 118.18359375 309.515625 C119.53293716 249.50952989 96.25677552 185.74957547 55.00390625 142.13671875 C54.0030186 141.0907491 53.00169034 140.04520096 52 139 C51.43265137 138.40010254 50.86530273 137.80020508 50.28076172 137.18212891 C37.50341134 123.72451088 23.82081363 114.39493608 7.82888794 105.17889404 C-13.96741591 92.5919727 -35.03093619 78.43110496 -55.18457031 63.35546875 C-57.00700837 61.99476728 -58.84254251 60.65325215 -60.6796875 59.3125 C-69.56055123 52.75878002 -79.35952833 45.2790518 -82 34 C-83.26834287 23.4527277 -82.386832 14.90079779 -76 6 C-57.65169115 -14.80230078 -22.75780391 -10.33529968 0 0 Z " fill="#0E3C2D" transform="translate(1465,816)"/>
<path d="M0 0 C85.409017 -0.06223707 170.81588082 0.09466123 256.22439003 0.38058157 C268.52165736 0.42169963 280.81893048 0.46034258 293.11621094 0.49731445 C336.74968701 0.62882072 380.38300499 0.78389987 424.01625061 0.97792339 C427.37886989 0.99286047 430.74148991 1.0076094 434.10411072 1.02219868 C454.6483405 1.11133522 475.19249808 1.20790151 495.73657656 1.32734376 C497.37508928 1.33685512 499.01360205 1.34635795 500.65211487 1.35585213 C501.45706433 1.36051743 502.26201379 1.36518274 503.09135565 1.36998942 C508.68714478 1.40193852 514.28294412 1.42901265 519.87876892 1.45385551 C526.62682164 1.48387407 533.37479634 1.52060552 540.12276345 1.56606211 C543.54776962 1.58896611 546.97272026 1.60892842 550.39778519 1.62046933 C582.94409214 1.74501375 582.94409214 1.74501375 598.125 7.0625 C599.0111499 7.36704102 599.8972998 7.67158203 600.81030273 7.98535156 C629.59976952 18.13523887 656.34860133 33.76756197 680 53 C680.52948242 53.42651855 681.05896484 53.85303711 681.60449219 54.29248047 C696.35666307 66.26047599 710.58912293 79.77877705 722 95 C723.0492626 96.34782487 724.09876341 97.69546432 725.1484375 99.04296875 C780.57917225 171.20325456 790.77716356 264.10174011 780 352 C773.16412502 403.27676039 751.58792479 451.655742 718 491 C717.01916658 492.1663601 716.0387212 493.33304659 715.05859375 494.5 C710.16054145 500.30261631 705.22801402 505.94962465 699.765625 511.234375 C698.04157749 512.95842251 696.49617176 514.75144505 694.9375 516.625 C674.32631535 540.52270613 646.77398873 559.38561933 619.8125 575.3125 C618.33426758 576.19301025 618.33426758 576.19301025 616.82617188 577.09130859 C598.64637435 587.69215322 580.13921376 592.2668082 559.1875 587.9375 C550.75057597 585.3572174 545.93206005 579.47199086 541.2265625 572.30859375 C536.70684129 563.80172994 536.75991865 553.35021523 538.58203125 544.01953125 C543.5493658 529.7526206 559.52230432 518.64211727 570.98046875 509.4296875 C573.2066716 507.63835739 575.41488116 505.83261697 577.61328125 504.0078125 C590.55332052 493.30498611 604.11054287 483.61400305 618 474.1875 C632.39043263 464.40240991 644.28879995 453.78162642 655 440 C655.63010986 439.19248291 655.63010986 439.19248291 656.27294922 438.36865234 C697.84930084 384.67549969 715.75902597 311.59936876 707.48071289 244.49121094 C700.27968814 192.72663055 674.78947346 137.89392055 632.26904297 105.72241211 C616.62106633 94.28770473 599.70992032 85.32121434 581.3125 79.25 C580.51360352 78.98026367 579.71470703 78.71052734 578.89160156 78.43261719 C559.6730066 72.41242386 540.49324868 71.41401457 520.49926758 71.4699707 C517.78910561 71.46282878 515.07899025 71.45410692 512.36884403 71.44345188 C506.53371324 71.42359329 500.6987131 71.41801695 494.86355209 71.42232895 C486.24927919 71.42859328 477.63515908 71.41166159 469.02091694 71.38987339 C454.66449078 71.3541157 440.30809596 71.33581368 425.95162964 71.32785034 C405.65597377 71.31640764 385.36040962 71.28026085 365.06479682 71.2381704 C357.04302073 71.22160887 349.0212433 71.20570428 340.99946594 71.18977356 C340.11514448 71.18800729 339.23082301 71.18624102 338.31970393 71.18442123 C325.75287836 71.15938963 313.18605083 71.13766887 300.6192148 71.11863264 C254.40467673 71.04861467 208.19072506 70.92662879 161.9765625 70.7265625 C161.27556391 70.72353389 160.57456531 70.72050529 159.85232434 70.7173849 C143.04621254 70.64471698 126.24011812 70.56851054 109.43403035 70.49048072 C96.73890704 70.43164994 84.04377186 70.3756256 71.34863424 70.31998014 C47.56574477 70.21573462 23.78286935 70.10874766 0 70 C0 46.9 0 23.8 0 0 Z " fill="#0E3C2E" transform="translate(765,67)"/>
</svg>
